<svg width="400" height="400" viewBox="0 0 400 400" fill="none" xmlns="http://www.w3.org/2000/svg">
<rect width="400" height="400" fill="white"/>
<path d="M351.909 233.558L241.029 40.8263C238.95 37.2196 235.12 35 230.973 35H168.211C164.064 35 160.234 37.2196 158.155 40.8263L126.78 95.3597C124.711 98.9665 124.711 103.406 126.78 107.002L190.811 218.278C194.713 225.06 189.838 233.548 182.025 233.548H53.9726C49.8254 233.548 45.9956 235.767 43.9168 239.374L12.5514 293.918C10.4829 297.525 10.4829 301.964 12.5514 305.56L43.9271 360.104C46.0058 363.711 49.8356 365.93 53.9828 365.93H116.744C120.892 365.93 124.722 363.711 126.8 360.104L190.832 248.828C194.743 242.046 204.502 242.046 208.404 248.828L272.435 360.104C274.504 363.711 278.344 365.93 282.491 365.93H345.253C349.4 365.93 353.23 363.711 355.308 360.104L386.684 305.56C388.752 301.954 388.752 297.514 386.684 293.918L351.949 233.558H351.909Z" fill="black"/>
</svg>
